HIERARCHY
ROOT Hips
{
  OFFSET -32.5998 29.0326 120.673
  CHANNELS 6 Xposition Yposition Zposition Zrotation Xrotation Yrotation
  JOINT LeftUpLeg
  {
    OFFSET 8.64259 1.95398 -2.38835
    CHANNELS 3 Zrotation Xrotation Yrotation
    JOINT LeftLeg
    {
      OFFSET 43.7702 0 0
      CHANNELS 3 Zrotation Xrotation Yrotation
      JOINT LeftFoot
      {
        OFFSET 40.6238 0 0
        CHANNELS 3 Zrotation Xrotation Yrotation
        JOINT LeftToeBase
        {
          OFFSET 12.7242 0 0
          CHANNELS 3 Zrotation Xrotation Yrotation
          End Site
          {
            OFFSET 0 0 0
          }
        }
      }
    }
  }
  JOINT RightUpLeg
  {
    OFFSET -8.2249 1.95398 -2.59336
    CHANNELS 3 Zrotation Xrotation Yrotation
    JOINT RightLeg
    {
      OFFSET 43.5653 0 0
      CHANNELS 3 Zrotation Xrotation Yrotation
      JOINT RightFoot
      {
        OFFSET 40.6238 0 0
        CHANNELS 3 Zrotation Xrotation Yrotation
        JOINT RightToeBase
        {
          OFFSET 12.7242 0 0
          CHANNELS 3 Zrotation Xrotation Yrotation
          End Site
          {
            OFFSET 0 0 0
          }
        }
      }
    }
  }
  JOINT Spine
  {
    OFFSET 0.165834 0.87714 6.61349
    CHANNELS 3 Zrotation Xrotation Yrotation
    JOINT Spine1
    {
      OFFSET 7.38963 1.71661e-005 0
      CHANNELS 3 Zrotation Xrotation Yrotation
      JOINT Spine2
      {
        OFFSET 11.9445 1.14441e-005 0
        CHANNELS 3 Zrotation Xrotation Yrotation
        JOINT Spine3
        {
          OFFSET 14.7254 4.19617e-005 0
          CHANNELS 3 Zrotation Xrotation Yrotation
          JOINT Spine4
          {
            OFFSET 10.9679 0 0
            CHANNELS 3 Zrotation Xrotation Yrotation
            JOINT RightShoulder
            {
              OFFSET 2.46616 -1.6653 3.69651
              CHANNELS 3 Zrotation Xrotation Yrotation
              JOINT RightArm
              {
                OFFSET 13.0012 0 0
                CHANNELS 3 Zrotation Xrotation Yrotation
                JOINT RightForeArm
                {
                  OFFSET 28.7848 1.62311e-005 0
                  CHANNELS 3 Zrotation Xrotation Yrotation
                  JOINT RightHand
                  {
                    OFFSET 26.5688 1.62095e-005 0
                    CHANNELS 3 Zrotation Xrotation Yrotation
                    End Site
                    {
                      OFFSET 0 0 0
                    }
                  }
                }
              }
            }
            JOINT LeftShoulder
            {
              OFFSET 2.38034 -1.29275 -3.7523
              CHANNELS 3 Zrotation Xrotation Yrotation
              JOINT LeftArm
              {
                OFFSET 16.3182 6.07031e-005 0
                CHANNELS 3 Zrotation Xrotation Yrotation
                JOINT LeftForeArm
                {
                  OFFSET 27.0901 0 0
                  CHANNELS 3 Zrotation Xrotation Yrotation
                  JOINT LeftHand
                  {
                    OFFSET 24.5451 1.51738e-005 0
                    CHANNELS 3 Zrotation Xrotation Yrotation
                    End Site
                    {
                      OFFSET 0 0 0
                    }
                  }
                }
              }
            }
            JOINT Neck
            {
              OFFSET 5.0226 -0.0266342 0
              CHANNELS 3 Zrotation Xrotation Yrotation
              JOINT Head
              {
                OFFSET 6.69364 2.86102e-005 0
                CHANNELS 3 Zrotation Xrotation Yrotation
                End Site
                {
                  OFFSET 0 0 0
                }
              }
            }
          }
        }
      }
    }
  }
}
MOTION
Frames:	18
Frame Time:	0.0416667
7.49231 101.316 -3.59968 -102.451 -49.3246 -100.036 -173.636 -5.73531 90.6382 -11.4642 9.87478 0.869152 70.0111 5.47358 -4.38402 18.9774 -9.00259 8.99599 171.745 -6.60341 87.3647 -11.291 -9.57047 -0.982643 66.131 -3.55234 0.808113 29.1638 -1.04686 3.65567 0.184685 7.89743 -90.0738 11.0793 0.333434 -0.179141 -0.591637 0.325206 -0.193651 -23.1271 0.371839 -0.0706478 -3.11447 0.37183 -0.0706643 89.5101 -28.6375 -108.28 42.3677 -18.007 -5.17417 -13.4322 -14.2684 -25.0705 -11.5879 -0.274231 -2.52074 -88.8272 -49.1495 80.3159 -20.3068 30.4992 -14.8951 6.93915 -2.3987 -13.2068 -0.00417067 -0.0421155 -2.02807 2.40797 2.45349 -0.727391 -8.98154 2.5216 0.432248 
7.48756 101.351 -3.56842 -102.54 -49.2476 -100.111 -173.65 -5.74597 90.5875 -11.7251 8.8438 0.85879 70.6059 5.16391 -7.34618 19.9602 -11.5185 14.4427 171.853 -6.75559 87.3908 -11.1179 -9.30366 -1.12816 66.357 -3.67371 0.93932 28.8052 -0.837534 3.39791 0.224503 7.94112 -90.1163 10.9922 0.393001 -0.268834 -0.67876 0.380803 -0.285889 -23.2143 0.455632 -0.138295 -3.20167 0.455635 -0.138295 90.1527 -27.8268 -107.307 42.5871 -17.813 -5.78746 -13.5413 -14.9472 -25.0099 -14.2093 -0.455088 -1.48902 -89.0142 -49.5731 80.118 -20.0192 30.1905 -15.659 7.13539 -1.67069 -12.9106 -0.687305 -0.0640129 -2.54516 2.83719 2.21605 0.0159641 -8.91349 2.18332 0.087728 
7.49822 101.38 -3.56858 -102.524 -49.2109 -100.082 -173.535 -5.71217 90.7368 -11.919 8.77794 0.760706 71.5899 5.03872 -10.3991 21.6172 -14.0398 20.7556 171.891 -7.03526 87.4312 -10.5681 -9.51447 -1.17419 66.1095 -3.65806 0.755614 28.9874 -0.84399 3.10903 0.221363 7.92746 -90.0972 11.02 0.395659 -0.231221 -0.65091 0.385101 -0.248423 -23.1865 0.446864 -0.101611 -3.17387 0.446858 -0.10163 89.9775 -28.2885 -107.477 42.1785 -18.185 -5.69119 -13.6584 -15.2708 -25.2399 -14.3342 -0.473317 -1.38091 -88.7474 -49.0913 80.4252 -20.3186 30.6014 -15.6332 7.01178 -1.83724 -12.8697 -0.755177 -0.0658844 -2.78206 3.04305 2.26301 -0.314448 -9.13244 2.27918 0.182694 
7.51231 101.405 -3.56895 -102.646 -49.1154 -100.151 -173.53 -5.78778 90.741 -12.1095 8.91221 0.773459 71.5867 4.90408 -10.7665 22.0631 -14.4909 22.0251 171.912 -7.1758 87.4378 -10.4545 -9.41823 -1.21956 66.0836 -3.64313 0.937336 28.805 -0.834003 3.38357 0.239906 7.92184 -90.1024 11.0186 0.430174 -0.245041 -0.652267 0.418962 -0.263734 -23.1879 0.483923 -0.104409 -3.1753 0.483906 -0.104436 90.1427 -28.2503 -107.156 42.2621 -18.7639 -5.79484 -13.1665 -14.4823 -24.8882 -13.5901 -0.355035 -2.22498 -88.7196 -49.1091 80.4707 -20.2267 30.7851 -15.7343 6.9535 -1.94426 -12.7016 -0.396358 -0.0657003 -2.7145 3.05026 2.27614 -0.166186 -8.9117 2.2803 -0.0861779 
7.51566 101.4 -3.56286 -102.787 -48.9871 -100.174 -173.433 -5.95314 90.7515 -11.8818 8.78806 0.733841 70.8968 5.2802 -7.16043 20.23 -11.2102 14.2123 171.92 -7.24763 87.4769 -10.5334 -9.5822 -1.21686 66.0907 -3.63808 0.883207 28.8398 -0.812588 3.23445 0.246674 7.91835 -90.1101 11.0153 0.440012 -0.26159 -0.655613 0.428088 -0.280716 -23.1913 0.498316 -0.117244 -3.17865 0.4983 -0.117249 90.1071 -28.3151 -107.203 42.2959 -18.9009 -5.665 -13.1828 -14.3558 -25.0386 -13.1379 -0.321403 -2.41091 -88.6873 -49.1216 80.522 -20.4921 30.4559 -15.5514 7.1935 -1.57127 -12.8016 -0.305891 -0.0641504 -2.97711 3.31806 2.16903 -0.133212 -9.25963 2.18073 -0.308304 
7.53989 101.396 -3.56434 -102.857 -49.013 -100.243 -173.438 -5.89006 90.73 -12.116 8.9037 0.739726 71.2831 5.51786 -6.92963 19.0541 -11.7962 13.9626 171.909 -7.36194 87.4514 -10.3938 -9.44688 -1.23348 66.1389 -3.69908 1.03967 28.7362 -0.819119 3.44061 0.238651 7.91645 -90.1231 11.0032 0.418052 -0.285505 -0.667741 0.405109 -0.303634 -23.2034 0.484537 -0.146663 -3.19071 0.484541 -0.146658 90.1546 -28.1387 -107.177 42.4358 -18.8524 -5.57177 -13.3553 -14.4191 -25.3319 -12.9291 -0.33075 -2.27927 -88.7579 -49.1471 80.4203 -20.3045 30.8386 -15.6698 6.90412 -2.12753 -12.8277 -0.504719 -0.0619602 -2.9369 3.32125 2.11582 0.0286239 -9.08785 2.10568 -0.416527 
7.54151 101.407 -3.57392 -102.933 -49.0423 -100.219 -173.332 -6.10746 90.8758 -11.9026 8.95524 0.66415 70.6812 5.39523 -5.7385 19.5062 -9.75932 10.9357 171.965 -7.49461 87.5548 -10.2215 -9.32218 -1.23647 66.0235 -3.62745 1.08571 28.7415 -0.812565 3.40429 0.218766 7.91664 -90.1427 11.0059 0.369335 -0.319862 -0.665055 0.354926 -0.335813 -23.2005 0.448405 -0.194071 -3.18784 0.448406 -0.194067 90.0589 -28.0823 -107.395 42.4781 -18.627 -5.48448 -13.4556 -14.5989 -25.3208 -12.9962 -0.34801 -2.13483 -88.8138 -49.3171 80.3691 -20.2182 30.7561 -15.5121 6.94159 -2.15561 -12.9503 -0.54651 -0.0598049 -2.83349 3.18001 2.15047 0.146665 -8.9253 2.12172 -0.454233 
7.5548 101.395 -3.56743 -102.881 -48.8948 -100.185 -173.372 -6.16533 90.8483 -11.8805 8.82203 0.705341 72.5425 5.98404 -8.28408 17.108 -14.6654 16.559 172.02 -7.49253 87.5559 -10.2073 -9.48779 -1.3194 66.0561 -3.63776 1.03594 28.8145 -0.825757 3.33304 0.227304 7.92011 -90.1314 11.0305 0.391566 -0.299074 -0.640377 0.378063 -0.316037 -23.1759 0.463358 -0.167565 -3.16324 0.46338 -0.16756 89.9583 -28.3175 -107.504 42.3781 -18.6183 -5.30758 -13.4516 -14.4275 -25.3803 -12.628 -0.330946 -2.2057 -88.777 -49.0242 80.3669 -20.5965 30.7371 -15.3452 6.70287 -3.02729 -12.9878 -0.310606 -0.0583757 -2.622 3.11541 2.12452 -0.119699 -9.04557 2.13868 -0.400365 
7.54326 101.406 -3.53089 -103.043 -48.7798 -100.322 -173.375 -6.14883 90.7945 -11.9567 8.64994 0.723735 71.0413 5.28828 -7.41178 20.084 -11.4424 14.4603 171.957 -7.64899 87.4761 -10.1754 -9.60634 -1.33034 66.1102 -3.66554 1.11277 28.723 -0.799846 3.3833 0.227561 7.93044 -90.1308 11.0134 0.392432 -0.29791 -0.65748 0.378955 -0.314891 -23.193 0.463815 -0.166184 -3.18036 0.463826 -0.166192 90.033 -28.1899 -107.404 42.6237 -18.6493 -5.30636 -13.2746 -14.1392 -25.1715 -12.633 -0.316461 -2.3444 -88.6863 -48.8682 80.4737 -20.8581 30.5658 -15.4106 6.89391 -2.40705 -12.8147 -0.38015 -0.0580853 -2.6434 3.02483 2.10118 -0.0929517 -9.07758 2.10968 -0.365056 
7.55549 101.409 -3.48678 -103.012 -48.6729 -100.268 -173.344 -6.23312 90.7337 -11.9441 8.54317 0.703748 71.3309 5.86516 -5.48423 17.4189 -10.4409 9.98789 171.913 -7.63248 87.4422 -10.2095 -9.89153 -1.30696 66.0537 -3.64332 0.93092 28.7475 -0.819624 3.42306 0.23231 7.93182 -90.1401 11.0081 0.397626 -0.316888 -0.662781 0.383282 -0.334076 -23.1983 0.474461 -0.182736 -3.18565 0.474482 -0.182735 90.0915 -28.1523 -107.3 42.5916 -18.7659 -5.41857 -13.1259 -14.1322 -24.9924 -13.0627 -0.325804 -2.35509 -88.6915 -48.9266 80.4773 -20.8091 30.5685 -15.4753 6.77523 -2.82613 -12.7846 -0.136384 -0.0585289 -2.58113 3.06042 2.0397 0.0602653 -9.09409 2.03582 -0.613067 
7.53162 101.407 -3.45192 -102.987 -48.5631 -100.27 -173.373 -6.24016 90.6195 -11.9038 8.35429 0.716972 70.5771 5.83836 -3.33572 17.0972 -7.46069 4.47865 171.964 -7.60564 87.4364 -10.2975 -9.8305 -1.38534 66.1002 -3.64001 1.06524 28.7486 -0.821234 3.4279 0.238932 7.93246 -90.1421 11.0028 0.409927 -0.322019 -0.668172 0.395348 -0.339755 -23.2037 0.487763 -0.183928 -3.19107 0.487749 -0.183937 90.1132 -28.2406 -107.221 42.467 -18.8757 -5.44868 -13.1484 -14.3495 -24.9423 -12.9643 -0.319423 -2.3926 -88.7458 -48.9607 80.4015 -20.6293 30.5702 -15.6532 6.86187 -2.26772 -12.6612 -0.0443009 -0.059301 -2.9898 3.06621 2.07668 -0.0515461 -9.10255 2.07267 -0.248742 
7.49787 101.454 -3.42752 -102.878 -48.4786 -100.118 -173.325 -5.95444 90.608 -12.6773 8.0435 0.709287 70.4137 5.44693 -3.57995 17.8725 -7.40469 5.08256 171.967 -7.92062 87.4862 -9.54496 -10.028 -1.35666 65.7257 -3.60749 0.966713 28.8395 -0.82392 3.2819 0.2446 7.93805 -90.159 10.9987 0.413292 -0.355873 -0.672283 0.397217 -0.373728 -23.2078 0.501138 -0.215212 -3.19514 0.501133 -0.215209 90.1716 -28.0445 -107.18 42.5871 -18.8643 -5.48216 -13.296 -14.6829 -25.0303 -13.0704 -0.360128 -2.0411 -88.6937 -48.9908 80.4865 -20.6058 30.476 -15.7077 6.81932 -2.41396 -12.9584 0.314933 -0.0600882 -2.76943 3.16426 2.12723 0.13132 -9.03668 2.09897 -0.394784 
7.48605 101.45 -3.38819 -102.774 -48.5256 -100.149 -173.5 -6.38676 90.4548 -12.1566 8.89051 0.78739 70.2602 5.58692 -2.94279 18.1891 -7.56504 5.66223 171.889 -7.71435 87.371 -9.87436 -10.1245 -1.34278 66.0122 -3.71442 0.833049 28.5408 -0.713794 3.34049 0.244392 7.91896 -90.1496 11.0365 0.417344 -0.337709 -0.634414 0.40209 -0.355758 -23.17 0.49955 -0.196663 -3.15732 0.499551 -0.196662 90.0897 -27.9739 -107.375 42.7747 -18.72 -5.14387 -13.4073 -14.8377 -25.2049 -13.2875 -0.366969 -2.03258 -88.6874 -49.0188 80.5019 -20.7788 30.2735 -15.668 7.13226 -1.32478 -12.6347 -0.129268 -0.0604801 -2.73494 2.99227 2.09103 0.111423 -8.87244 2.06685 -0.403652 
7.52261 101.429 -3.36665 -102.557 -48.5876 -100.088 -173.61 -6.05668 90.275 -12.15 8.2506 0.817782 70.4198 5.58773 -3.50486 17.2128 -8.1365 5.78047 171.824 -7.46017 87.2363 -10.0272 -10.0377 -1.3289 66.0482 -3.69473 1.03883 28.7801 -0.801956 3.29359 0.250168 7.90859 -90.1516 11.0573 0.427674 -0.342345 -0.613597 0.412172 -0.361465 -23.1492 0.510995 -0.197712 -3.13653 0.510985 -0.19771 90.1946 -27.7931 -107.234 42.8128 -18.8533 -5.07081 -13.2689 -14.4578 -25.2791 -13.3847 -0.387922 -1.8685 -88.8896 -49.1794 80.2271 -20.6743 30.2712 -15.5693 7.16027 -1.43004 -12.7052 -0.201575 -0.0601185 -2.68163 3.03465 2.0731 0.288433 -8.88895 2.01664 -0.339004 
7.41743 101.385 -3.32691 -102.532 -48.5886 -100.04 -173.532 -6.2211 90.4397 -11.6645 8.28796 0.780333 70.6196 5.83121 -3.63064 17.294 -7.87029 5.384 171.842 -7.31197 87.2898 -10.4412 -10.0298 -1.30222 66.2571 -3.73782 0.928037 28.8094 -0.861527 3.49069 0.24892 7.91263 -90.1494 11.0492 0.426192 -0.335909 -0.621722 0.410891 -0.356768 -23.1573 0.508189 -0.191804 -3.14467 0.508174 -0.191808 90.0363 -27.8753 -107.525 42.7948 -18.4786 -5.11713 -13.4335 -14.7473 -25.228 -13.1766 -0.381371 -1.87648 -88.8472 -49.1807 80.2918 -20.7299 30.1421 -15.4735 7.20199 -1.43871 -12.6967 -0.37257 -0.0589369 -2.55689 3.07458 2.10106 0.0585011 -8.91824 2.07349 -0.155817 
7.29472 101.374 -3.30106 -102.485 -48.5703 -100.017 -173.373 -6.1368 90.5518 -11.9145 8.38923 0.643127 70.6105 5.8051 -3.62093 18.0177 -7.68601 5.72194 171.819 -7.26104 87.2877 -10.6234 -9.91598 -1.2658 66.4455 -3.83434 1.10241 28.8288 -0.831202 3.33082 0.256689 7.90573 -90.1533 11.063 0.439873 -0.347566 -0.607911 0.42416 -0.366526 -23.1435 0.523991 -0.19932 -3.13086 0.523978 -0.199324 90.1578 -27.8048 -107.305 42.8882 -18.6929 -5.24528 -13.2401 -14.6018 -24.9713 -13.1812 -0.339344 -2.25592 -88.9304 -49.5694 80.2435 -20.2107 30.4989 -15.3471 6.84291 -2.55834 -12.8573 -0.0311415 -0.0448075 -2.14025 2.70694 2.12469 0.212237 -8.48046 2.07517 -0.22327 
7.13064 101.342 -3.24834 -102.301 -48.791 -99.7768 -173.158 -5.87347 90.8791 -12.3163 9.22773 0.517093 70.6968 5.92311 -3.3879 18.5067 -7.4231 5.70079 171.671 -7.19267 87.3542 -10.6674 -10.1787 -0.978569 66.5131 -3.97737 0.619859 28.8803 -0.881682 3.45262 0.257101 7.8922 -90.1542 11.0901 0.440339 -0.349377 -0.580865 0.424516 -0.368424 -23.1165 0.52496 -0.200891 -3.10382 0.524977 -0.200885 90.2013 -28.0312 -107.124 42.945 -18.6604 -5.30435 -13.1896 -14.403 -24.9349 -12.8174 -0.301 -2.53087 -88.954 -49.3939 80.1731 -20.2937 30.4494 -15.2547 6.87379 -2.57625 -12.7562 -0.140091 -0.0484896 -2.21278 2.6126 2.10336 -0.206625 -8.52595 2.1054 0.156034 
6.84824 101.378 -3.26231 -102.14 -48.662 -99.5447 -172.91 -5.69144 91.1986 -12.9518 8.82715 0.395926 69.4891 4.89754 -3.93607 21.8781 -5.62147 5.51205 171.722 -7.11571 87.5646 -10.9662 -10.2436 -0.883113 66.7835 -4.26738 0.57937 28.4194 -0.642787 3.256 0.283856 7.89828 -90.1612 11.0781 0.490416 -0.368174 -0.592828 0.473741 -0.389393 -23.1286 0.578395 -0.203758 -3.11592 0.578381 -0.203757 90.0271 -28.2464 -107.393 42.7694 -18.4941 -5.17559 -12.9435 -13.5206 -24.9123 -12.5772 -0.235049 -3.10203 -88.8715 -49.1372 80.2463 -20.5784 30.0837 -15.2701 7.01586 -2.22566 -12.6295 -0.23055 -0.0537248 -2.4176 2.81542 2.09118 -0.141974 -8.39954 2.08759 0.0425848 
